# xmcd
#
# Track frame offsets:
#	150
#	17350
#	37472
#	50590
#	78215
#	88172
#	111397
#	146530
#	156662
#	175677
#	195700
#	212292
#
# Disc length: 2969 seconds
#
# Revision: 1
# Processed by: cddbd v1.4PL0 Copyright (c) Steve Scherf et al.
# Submitted via: audiograbber 1.82.00
#
DISCID=a30b970c
DTITLE=Kliby Und Caroline - Zyt Zum Lache (Swiss)
DYEAR=1994
DGENRE=
TTITLE0=Wochenrückblick (1. Teil)
TTITLE1=Wochenrückblick (2. Teil)
TTITLE2=Zyt Zum Lache
TTITLE3=Kolleginnen Und Kollegen
TTITLE4=Heb Doch Klappe Seit De Pappe
TTITLE5=Caroline Telefoniert
TTITLE6=Party
TTITLE7=Mega, Mega (Lied)
TTITLE8=Lachen Über Tante Olga Und Onkel Hans (1. Teil)
TTITLE9=Lachen Über Tante Olga Und Onkel Hans (2. Teil)
TTITLE10=Gut Gewürzt
TTITLE11=Abendlied
EXTD=
EXTT0=
EXTT1=
EXTT2=
EXTT3=
EXTT4=
EXTT5=
EXTT6=
EXTT7=
EXTT8=
EXTT9=
EXTT10=
EXTT11=
PLAYORDER=
